<svg width="2000" height="1400" xmlns="http://www.w3.org/2000/svg"><path fill="#fff" d="M0 0h2000v1400H0z"/><path d="M0 700h0c54.874-16.603 109.748-33.206 164-48 54.252-14.794 107.881-27.777 165 1s117.727 99.316 174 108c56.273 8.684 108.21-44.487 162-61 53.79-16.513 109.435 3.632 164 21s108.052 31.959 166 22c57.948-9.959 120.358-44.468 178-64 57.642-19.532 110.514-24.087 165-18 54.486 6.087 110.584 22.817 164 38s104.15 28.818 158 13c53.85-15.818 110.814-61.091 168-68 57.186-6.909 114.593 24.545 212 56" fill="none" stroke="#fff" stroke-width="10" stroke-linecap="round"/></svg>